<svg xmlns="http://www.w3.org/2000/svg" viewBox="0 0 512 512"><path d="M256 483.3c99.7 0 155.1 0 191.4-36.1 36.2-36.1 36.2-91.3 36.2-190.7s0-154.6-36.2-190.7c-36.3-36-91.7-36-191.4-36s-155.1 0-191.4 36.1C28.4 102 28.4 157.2 28.4 256.6s0 154.6 36.2 190.7c36.3 36 91.7 36 191.4 36z" fill="#ef3939"/><linearGradient id="a" gradientUnits="userSpaceOnUse" x1="170.699" y1="109.389" x2="387.596" y2="485.065"><stop offset="0" stop-opacity=".2"/><stop offset=".791" stop-opacity=".05"/></linearGradient><path d="M404 172.7c-21.8-38.1-58.3-67.8-104.2-80.1-91.1-24.3-184.7 29.5-209.1 120.2-12.3 45.6-4.7 91.9 17.5 129.7.3.5.6 1.1 1 1.6l80.2 138.5c13.3.4 27.7.5 43.2.5h22.6c44.3 0 79.9 0 109-3.2 36.3-4 62.3-12.9 82.4-32.9 29.3-29.2 34.9-71 36-138.7-46.8-80.8-78.5-135.5-78.6-135.6z" fill="url(#a)"/><path d="M375.8 136.6c-66.5-66.4-174.4-66.4-241 0-66.5 66.4-66.5 174 0 240.3 66.5 66.4 174.4 66.4 241 0s66.6-174 0-240.3zm-10.2 78.1c-28.1 48.7-56.2 97.4-84.3 146.2-5.2 9.1-12.8 14.5-23.2 15.3-11.6.8-20.8-4.1-26.7-14.1-17.8-30.5-35.4-61.2-53-91.8-10.7-18.6-21.5-37.2-32.2-55.9-10.8-18.8 1.4-41.7 23-42.8 11.4-.6 20.2 4.7 26 14.6 7.9 13.5 15.7 27.2 23.6 40.8 5.7 9.8 11.2 19.7 17 29.3 8.4 14.1 20.8 22 37.3 23 23.3 1.4 45-15.5 47.8-40.2.2-1.8.3-3.7.4-4.6-.1-8-1.6-14.8-4.8-21.1-8.7-17.4.6-36.9 19.5-41.1 15.4-3.4 31.4 7.9 33.4 23.5 1 6.7-.4 13-3.8 18.9z" fill="#fff"/></svg>