<?xml version="1.0" encoding="UTF-8"?>
<svg width="44px" height="44px" viewBox="0 0 44 44" version="1.1" xmlns="http://www.w3.org/2000/svg" xmlns:xlink="http://www.w3.org/1999/xlink">
    <!-- Generator: Sketch 47 (45396) - http://www.bohemiancoding.com/sketch -->
    <title>Brand / Icon / Simple / SimpleIcon@3x</title>
    <desc>Created with Sketch.</desc>
    <defs></defs>
    <g id="Brand" stroke="none" stroke-width="1" fill="none" fill-rule="evenodd">
        <g id="Brand-/-Icon-/-Simple-/-SimpleIcon">
            <g id="Logo" transform="translate(8.000000, 5.000000)">
                <g>
                    <ellipse id="Oval" fill="#FFCC00" cx="13.6104892" cy="20.3774287" rx="13.5971977" ry="13.5805274"></ellipse>
                    <path d="M20.4190464,6.53462636 L20.4191618,19.2393466 L20.3891321,19.2493799 C20.3891431,19.2547747 20.3891508,19.2601912 20.3891508,19.2656309 C20.3891508,20.5082746 20.2989602,21.6673722 20.1304778,22.2589441 C19.3201819,25.1040395 16.698987,27.1676924 13.590552,27.1676924 C9.8357895,27.1676924 6.83182759,24.1375442 6.83182759,20.3873851 C6.83182759,16.637226 9.8357895,13.6070778 13.590552,13.6070778 C15.3597108,13.6070778 16.9710383,14.2820055 18.1805001,15.3881256 C18.5756524,15.7495144 18.9279079,16.1569306 19.2287557,16.6018738 C19.1453032,16.2036508 19.0630877,15.7026643 19.0630877,15.2744427 L19.0630877,5.4282284 L19.0630877,0 L27.9121361,2.70814036 L27.9121361,8.84128177 L20.4190464,6.53462636 Z" id="Combined-Shape" fill="#FF3333"></path>
                </g>
            </g>
        </g>
    </g>
</svg>