<svg height="44" viewBox="0 0 44 44" width="44" xmlns="http://www.w3.org/2000/svg"><g fill="none" fill-rule="evenodd" transform="translate(8 5)"><ellipse cx="13.610489" cy="20.377429" fill="#fc0" rx="13.597198" ry="13.580527"/><path d="m20.4190464 6.53462636.0001154 12.70472024-.0300297.0100333c.000011.0053948.0000187.0108113.0000187.016251 0 1.2426437-.0901906 2.4017413-.258673 2.9933132-.8102959 2.8450954-3.4314908 4.9087483-6.5399258 4.9087483-3.7547625 0-6.75872441-3.0301482-6.75872441-6.7803073s3.00396191-6.7803073 6.75872441-6.7803073c1.7691588 0 3.3804863.6749277 4.5899481 1.7810478.3951523.3613888.7474078.768805 1.0482556 1.2137482-.0834525-.398223-.165668-.8992095-.165668-1.3274311v-9.8462143-5.4282284l8.8490484 2.70814036v6.13314141z" fill="#f33"/></g></svg>